<svg width="22" height="22" viewBox="0 0 22 22" fill="none" xmlns="http://www.w3.org/2000/svg">
<mask id="mask0_5_13" style="mask-type:alpha" maskUnits="userSpaceOnUse" x="0" y="0" width="22" height="22">
<path d="M12.375 1.83334C12.375 1.07395 11.7594 0.458344 11 0.458344C10.2406 0.458344 9.62498 1.07395 9.62498 1.83334V9.62501H1.83331C1.07392 9.62501 0.458313 10.2406 0.458313 11C0.458313 11.7594 1.07392 12.375 1.83331 12.375H9.62498V20.1667C9.62498 20.9261 10.2406 21.5417 11 21.5417C11.7594 21.5417 12.375 20.9261 12.375 20.1667V12.375H20.1666C20.926 12.375 21.5416 11.7594 21.5416 11C21.5416 10.2406 20.926 9.62501 20.1666 9.62501H12.375V1.83334Z" fill="#006FFD"/>
</mask>
<g mask="url(#mask0_5_13)">
<rect width="22" height="22" fill="black"/>
</g>
</svg>
