<svg width="100%" height="100%" viewBox="0 0 30 30" xmlns="http://www.w3.org/2000/svg">
<path d="M10.0642 22.2856L10.8811 22.7223C12.147 23.3991 13.5607 23.7522 14.9962 23.75L15 23.75C19.8327 23.75 23.75 19.8327 23.75 15C23.75 10.1673 19.8327 6.25 15 6.25C10.1673 6.25 6.25001 10.1673 6.25001 15V15.0038C6.24785 16.4393 6.60091 17.853 7.27771 19.1189L7.71444 19.9358L7.04291 22.9571L10.0642 22.2856ZM3.75001 26.25L5.07301 20.2976C4.20174 18.6679 3.74723 16.848 3.75001 15C3.75001 8.78662 8.78664 3.75 15 3.75C21.2134 3.75 26.25 8.78662 26.25 15C26.25 21.2134 21.2134 26.25 15 26.25C13.152 26.2528 11.3321 25.7983 9.70238 24.927L3.75001 26.25Z" fill="current"/>
</svg>
