<svg width="27" height="29" viewBox="0 0 27 29" xmlns="http://www.w3.org/2000/svg">
<path d="M23.445 5.748C22.8704 5.15858 22.1882 4.69101 21.4373 4.372C20.6864 4.05299 19.8816 3.88879 19.0688 3.88879C18.256 3.88879 17.4511 4.05299 16.7002 4.372C15.9493 4.69101 15.2671 5.15858 14.6925 5.748L13.5 6.97069L12.3075 5.748C11.1469 4.55797 9.57267 3.88941 7.93126 3.88941C6.28985 3.88941 4.71567 4.55797 3.55501 5.748C2.39436 6.93804 1.74231 8.55208 1.74231 10.235C1.74231 11.918 2.39436 13.532 3.55501 14.7221L4.74751 15.9448L13.5 24.9189L22.2525 15.9448L23.445 14.7221C24.0199 14.1329 24.4759 13.4334 24.787 12.6635C25.0982 11.8936 25.2583 11.0684 25.2583 10.235C25.2583 9.40167 25.0982 8.57646 24.787 7.80656C24.4759 7.03666 24.0199 6.33715 23.445 5.748Z"
 stroke-width="2.5" stroke-linecap="round" stroke-linejoin="round"/>
</svg>
