<svg width="21" height="20" viewBox="0 0 21 20" fill="none" xmlns="http://www.w3.org/2000/svg">
<path d="M10.5185 2.99999C11.8494 2.99999 12.9382 4.04999 12.9382 5.33332C12.9382 6.61666 11.8494 7.66666 10.5185 7.66666C9.18763 7.66666 8.09874 6.61666 8.09874 5.33332C8.09874 4.04999 9.18763 2.99999 10.5185 2.99999ZM10.5185 14.6667C13.7852 14.6667 17.5358 16.1717 17.7777 17H3.25923C3.5375 16.16 7.26392 14.6667 10.5185 14.6667ZM10.5185 0.666656C7.84466 0.666656 5.67898 2.75499 5.67898 5.33332C5.67898 7.91166 7.84466 9.99999 10.5185 9.99999C13.1923 9.99999 15.358 7.91166 15.358 5.33332C15.358 2.75499 13.1923 0.666656 10.5185 0.666656ZM10.5185 12.3333C7.28812 12.3333 0.839478 13.8967 0.839478 17V19.3333H20.1975V17C20.1975 13.8967 13.7489 12.3333 10.5185 12.3333Z" fill="black"/>
</svg>
