<svg width="100%" height="100%" viewBox="0 0 30 30"  xmlns="http://www.w3.org/2000/svg">
<path fill="current" d="M14.5185 6.99996C15.8494 6.99996 16.9382 8.04996 16.9382 9.33329C16.9382 10.6166 15.8494 11.6666 14.5185 11.6666C13.1876 11.6666 12.0987 10.6166 12.0987 9.33329C12.0987 8.04996 13.1876 6.99996 14.5185 6.99996ZM14.5185 18.6666C17.7852 18.6666 21.5358 20.1716 21.7777 21H7.25923C7.5375 20.16 11.2639 18.6666 14.5185 18.6666ZM14.5185 4.66663C11.8447 4.66663 9.67898 6.75496 9.67898 9.33329C9.67898 11.9116 11.8447 14 14.5185 14C17.1923 14 19.358 11.9116 19.358 9.33329C19.358 6.75496 17.1923 4.66663 14.5185 4.66663ZM14.5185 16.3333C11.2881 16.3333 4.83948 17.8966 4.83948 21V23.3333H24.1975V21C24.1975 17.8966 17.7489 16.3333 14.5185 16.3333Z" />
</svg>
