<svg width="23" height="23" viewBox="0 0 23 23" fill="none" xmlns="http://www.w3.org/2000/svg">
<mask id="mask0_5_21" style="mask-type:alpha" maskUnits="userSpaceOnUse" x="0" y="0" width="23" height="23">
<path fill-rule="evenodd" clip-rule="evenodd" d="M9.23884 0.479156C4.40476 0.479156 0.479187 4.36672 0.479187 9.1706C0.479187 13.9745 4.40476 17.8621 9.23884 17.8621C11.0411 17.8621 12.7176 17.3215 14.1109 16.3947L19.8256 22.0622C20.4421 22.6737 21.4402 22.6737 22.0568 22.0622C22.6756 21.4485 22.6755 20.4519 22.0568 19.8382L16.3787 14.207C17.3983 12.7864 17.9985 11.0476 17.9985 9.1706C17.9985 4.36672 14.0729 0.479156 9.23884 0.479156ZM3.63857 9.1706C3.63857 6.10905 6.14215 3.62041 9.23884 3.62041C12.3355 3.62041 14.8391 6.10905 14.8391 9.1706C14.8391 12.2322 12.3355 14.7208 9.23884 14.7208C6.14215 14.7208 3.63857 12.2322 3.63857 9.1706Z" fill="#006FFD"/>
</mask>
<g mask="url(#mask0_5_21)">
<rect width="23" height="23" fill="black"/>
</g>
</svg>
