<svg width="100%" height="100%" viewBox="0 0 30 30" fill="current" xmlns="http://www.w3.org/2000/svg">
<path fill="current"  d="M20.625 3.53125C18.45 3.53125 16.3625 4.54375 15 6.14375C13.6375 4.54375 11.55 3.53125 9.375 3.53125C5.525 3.53125 2.5 6.55625 2.5 10.4062C2.5 15.1313 6.75 18.9813 13.1875 24.8313L15 26.4688L16.8125 24.8188C23.25 18.9813 27.5 15.1313 27.5 10.4062C27.5 6.55625 24.475 3.53125 20.625 3.53125ZM15.125 22.9688L15 23.0938L14.875 22.9688C8.925 17.5812 5 14.0188 5 10.4062C5 7.90625 6.875 6.03125 9.375 6.03125C11.3 6.03125 13.175 7.26875 13.8375 8.98125H16.175C16.825 7.26875 18.7 6.03125 20.625 6.03125C23.125 6.03125 25 7.90625 25 10.4062C25 14.0188 21.075 17.5812 15.125 22.9688Z" />
</svg>
